<?xml version="1.0" encoding="UTF-8" standalone="no"?>
<!DOCTYPE svg PUBLIC "-//W3C//DTD SVG 1.1//EN"
 "http://www.w3.org/Graphics/SVG/1.1/DTD/svg11.dtd">
<!-- Generated by graphviz version 2.43.0 (0)
 -->
<!-- Title: Trie Pages: 1 -->
<svg width="208pt" height="566pt"
 viewBox="0.00 0.00 207.99 566.00" xmlns="http://www.w3.org/2000/svg" xmlns:xlink="http://www.w3.org/1999/xlink">
<g id="graph0" class="graph" transform="scale(1 1) rotate(0) translate(4 562)">
<title>Trie</title>
<polygon fill="white" stroke="transparent" points="-4,4 -4,-562 203.99,-562 203.99,4 -4,4"/>
<!-- Node_0 -->
<g id="node1" class="node">
<title>Node_0</title>
<ellipse fill="none" stroke="black" cx="99.5" cy="-540" rx="45.49" ry="18"/>
<text text-anchor="middle" x="99.5" y="-536.3" font-family="Times,serif" font-size="14.00">Node_0</text>
</g>
<!-- Node_1 -->
<g id="node2" class="node">
<title>Node_1</title>
<ellipse fill="none" stroke="black" cx="99.5" cy="-453" rx="45.49" ry="18"/>
<text text-anchor="middle" x="99.5" y="-449.3" font-family="Times,serif" font-size="14.00">Node_1</text>
</g>
<!-- Node_0&#45;&gt;Node_1 -->
<g id="edge1" class="edge">
<title>Node_0&#45;&gt;Node_1</title>
<path fill="none" stroke="black" d="M99.5,-521.8C99.5,-510.16 99.5,-494.55 99.5,-481.24"/>
<polygon fill="black" stroke="black" points="103,-481.18 99.5,-471.18 96,-481.18 103,-481.18"/>
<text text-anchor="middle" x="106" y="-492.8" font-family="Times,serif" font-size="14.00">H</text>
</g>
<!-- Node_2 -->
<g id="node3" class="node">
<title>Node_2</title>
<ellipse fill="none" stroke="black" cx="99.5" cy="-366" rx="45.49" ry="18"/>
<text text-anchor="middle" x="99.5" y="-362.3" font-family="Times,serif" font-size="14.00">Node_2</text>
</g>
<!-- Node_1&#45;&gt;Node_2 -->
<g id="edge2" class="edge">
<title>Node_1&#45;&gt;Node_2</title>
<path fill="none" stroke="black" d="M99.5,-434.8C99.5,-423.16 99.5,-407.55 99.5,-394.24"/>
<polygon fill="black" stroke="black" points="103,-394.18 99.5,-384.18 96,-394.18 103,-394.18"/>
<text text-anchor="middle" x="104" y="-405.8" font-family="Times,serif" font-size="14.00">e</text>
</g>
<!-- Node_3 -->
<g id="node4" class="node">
<title>Node_3</title>
<ellipse fill="none" stroke="black" cx="99.5" cy="-279" rx="45.49" ry="18"/>
<text text-anchor="middle" x="99.5" y="-275.3" font-family="Times,serif" font-size="14.00">Node_3</text>
</g>
<!-- Node_2&#45;&gt;Node_3 -->
<g id="edge3" class="edge">
<title>Node_2&#45;&gt;Node_3</title>
<path fill="none" stroke="black" d="M99.5,-347.8C99.5,-336.16 99.5,-320.55 99.5,-307.24"/>
<polygon fill="black" stroke="black" points="103,-307.18 99.5,-297.18 96,-307.18 103,-307.18"/>
<text text-anchor="middle" x="102" y="-318.8" font-family="Times,serif" font-size="14.00">l</text>
</g>
<!-- Node_6 -->
<g id="node5" class="node">
<title>Node_6</title>
<ellipse fill="none" stroke="black" cx="45.5" cy="-192" rx="45.49" ry="18"/>
<text text-anchor="middle" x="45.5" y="-188.3" font-family="Times,serif" font-size="14.00">Node_6</text>
</g>
<!-- Node_3&#45;&gt;Node_6 -->
<g id="edge4" class="edge">
<title>Node_3&#45;&gt;Node_6</title>
<path fill="none" stroke="black" d="M88.83,-261.21C81.06,-248.98 70.41,-232.21 61.61,-218.36"/>
<polygon fill="black" stroke="black" points="64.46,-216.32 56.14,-209.76 58.55,-220.08 64.46,-216.32"/>
<text text-anchor="middle" x="79" y="-231.8" font-family="Times,serif" font-size="14.00">i</text>
</g>
<!-- Node_4 -->
<g id="node8" class="node">
<title>Node_4</title>
<ellipse fill="none" stroke="black" cx="154.5" cy="-192" rx="45.49" ry="18"/>
<text text-anchor="middle" x="154.5" y="-188.3" font-family="Times,serif" font-size="14.00">Node_4</text>
</g>
<!-- Node_3&#45;&gt;Node_4 -->
<g id="edge7" class="edge">
<title>Node_3&#45;&gt;Node_4</title>
<path fill="none" stroke="black" d="M110.36,-261.21C118.27,-248.98 129.12,-232.21 138.08,-218.36"/>
<polygon fill="black" stroke="black" points="141.16,-220.06 143.65,-209.76 135.28,-216.25 141.16,-220.06"/>
<text text-anchor="middle" x="133" y="-231.8" font-family="Times,serif" font-size="14.00">l</text>
</g>
<!-- Node_7 -->
<g id="node6" class="node">
<title>Node_7</title>
<ellipse fill="none" stroke="black" cx="45.5" cy="-105" rx="45.49" ry="18"/>
<text text-anchor="middle" x="45.5" y="-101.3" font-family="Times,serif" font-size="14.00">Node_7</text>
</g>
<!-- Node_6&#45;&gt;Node_7 -->
<g id="edge5" class="edge">
<title>Node_6&#45;&gt;Node_7</title>
<path fill="none" stroke="black" d="M45.5,-173.8C45.5,-162.16 45.5,-146.55 45.5,-133.24"/>
<polygon fill="black" stroke="black" points="49,-133.18 45.5,-123.18 42,-133.18 49,-133.18"/>
<text text-anchor="middle" x="50.5" y="-144.8" font-family="Times,serif" font-size="14.00">u</text>
</g>
<!-- Node_8 -->
<g id="node7" class="node">
<title>Node_8</title>
<ellipse fill="none" stroke="black" cx="45.5" cy="-18" rx="45.49" ry="18"/>
<text text-anchor="middle" x="45.5" y="-14.3" font-family="Times,serif" font-size="14.00">Node_8</text>
</g>
<!-- Node_7&#45;&gt;Node_8 -->
<g id="edge6" class="edge">
<title>Node_7&#45;&gt;Node_8</title>
<path fill="none" stroke="black" d="M45.5,-86.8C45.5,-75.16 45.5,-59.55 45.5,-46.24"/>
<polygon fill="black" stroke="black" points="49,-46.18 45.5,-36.18 42,-46.18 49,-46.18"/>
<text text-anchor="middle" x="52.5" y="-57.8" font-family="Times,serif" font-size="14.00">m</text>
</g>
<!-- Node_5 -->
<g id="node9" class="node">
<title>Node_5</title>
<ellipse fill="none" stroke="black" cx="154.5" cy="-105" rx="45.49" ry="18"/>
<text text-anchor="middle" x="154.5" y="-101.3" font-family="Times,serif" font-size="14.00">Node_5</text>
</g>
<!-- Node_4&#45;&gt;Node_5 -->
<g id="edge8" class="edge">
<title>Node_4&#45;&gt;Node_5</title>
<path fill="none" stroke="black" d="M154.5,-173.8C154.5,-162.16 154.5,-146.55 154.5,-133.24"/>
<polygon fill="black" stroke="black" points="158,-133.18 154.5,-123.18 151,-133.18 158,-133.18"/>
<text text-anchor="middle" x="159" y="-144.8" font-family="Times,serif" font-size="14.00">o</text>
</g>
</g>
</svg>
